<?xml version="1.0" standalone="no"?>
<!DOCTYPE svg PUBLIC "-//W3C//DTD SVG 20010904//EN"
 "http://www.w3.org/TR/2001/REC-SVG-20010904/DTD/svg10.dtd">
<svg version="1.0" xmlns="http://www.w3.org/2000/svg"
 width="500.000000pt" height="500.000000pt" viewBox="0 0 500.000000 500.000000"
 preserveAspectRatio="xMidYMid meet">
<metadata>
Created by potrace 1.15, written by Peter Selinger 2001-2017
</metadata>
<g transform="translate(0.000000,500.000000) scale(0.100000,-0.100000)"
fill="#000000" stroke="none">
<path d="M2719 4456 c-53 -22 -122 -61 -155 -86 -32 -25 -66 -49 -75 -55 -24
-14 -124 -141 -151 -191 -24 -46 -21 -65 16 -89 37 -24 61 -11 108 58 85 126
192 209 345 267 100 38 121 66 81 107 -14 14 -37 27 -49 28 -13 1 -67 -16
-120 -39z"/>
<path d="M3057 4293 c-2 -2 -13 -5 -23 -7 -156 -32 -295 -105 -403 -215 -54
-56 -151 -195 -151 -218 0 -7 -17 -15 -37 -19 -162 -28 -324 -196 -364 -376
l-12 -58 -883 0 -884 0 -16 -24 c-15 -23 -14 -27 8 -59 22 -32 81 -101 185
-217 24 -26 43 -50 43 -53 0 -3 10 -17 22 -29 13 -13 52 -57 88 -98 36 -40 83
-94 105 -119 23 -25 61 -71 85 -101 25 -30 48 -56 52 -58 4 -2 32 -34 63 -73
30 -38 66 -79 78 -92 12 -13 60 -68 107 -122 47 -55 103 -120 126 -145 22 -25
57 -66 77 -91 l37 -46 0 -666 0 -666 -37 -6 c-81 -13 -99 -18 -125 -31 -16 -8
-28 -19 -28 -23 0 -5 -24 -14 -52 -20 -120 -25 -188 -60 -188 -96 0 -27 66
-65 146 -84 290 -68 783 -46 919 41 70 46 28 93 -116 129 -46 12 -93 29 -104
38 -24 21 -90 41 -134 41 l-31 0 0 327 0 328 228 -227 c266 -265 262 -261 262
-252 0 3 7 1 16 -7 9 -7 39 -14 67 -15 45 -2 64 4 137 43 47 25 87 49 90 52 5
7 81 57 163 107 26 16 62 41 80 56 17 15 37 28 44 28 6 0 13 3 15 8 4 10 245
182 255 182 4 0 21 14 37 30 16 17 33 30 38 30 4 0 17 8 27 18 31 28 50 42 55
42 3 0 22 16 43 35 21 19 41 35 46 35 4 0 15 8 25 18 28 26 62 52 67 52 3 0
13 8 24 18 51 47 80 72 85 72 3 0 18 12 34 27 17 16 51 46 78 68 134 111 326
288 480 442 141 140 179 173 208 178 24 5 48 20 71 46 19 22 35 42 35 47 1 4
5 26 9 50 5 23 5 45 1 47 -10 6 -4 73 10 109 5 15 28 54 50 87 23 33 48 78 56
102 21 57 24 164 8 228 -8 29 -14 78 -14 109 0 53 3 59 68 141 217 277 220
284 196 375 -31 120 -111 230 -257 351 -15 12 -58 39 -96 59 -57 30 -81 36
-134 38 -58 1 -69 -2 -103 -30 -22 -17 -54 -39 -71 -49 -18 -11 -33 -22 -33
-26 0 -3 -30 -28 -67 -55 -36 -27 -71 -54 -77 -59 -40 -39 -73 -52 -126 -49
-30 1 -66 6 -80 12 -37 14 -173 15 -222 1 -24 -7 -46 -12 -50 -11 -5 1 -8 -2
-8 -7 0 -5 -10 -13 -22 -17 -13 -4 -37 -17 -53 -30 -62 -47 -125 -66 -192 -60
-51 5 -70 3 -102 -14 -40 -20 -73 -58 -85 -97 -7 -22 -8 -22 -57 16 -56 45
-138 86 -190 96 -62 12 -65 18 -31 67 71 103 242 227 338 244 15 3 31 7 35 9
8 6 75 17 111 19 34 2 68 33 68 63 0 40 -33 63 -89 62 -28 -1 -52 -3 -54 -6z
m1282 -250 c23 -15 41 -30 41 -35 0 -4 5 -8 11 -8 18 0 137 -132 164 -182 50
-92 47 -105 -57 -242 -51 -67 -100 -129 -108 -138 -15 -16 -32 -1 -245 212
-220 220 -229 230 -210 245 11 9 49 37 85 63 36 26 72 54 81 62 21 20 48 42
78 62 21 15 28 15 71 2 27 -8 67 -26 89 -41z m-708 -210 c18 -6 66 -11 104
-12 l70 -2 257 -256 256 -256 -2 -51 c-1 -28 2 -64 7 -81 5 -16 10 -70 12
-120 5 -98 10 -84 -80 -234 l-30 -51 -476 476 -477 477 67 45 c36 25 82 52
102 61 40 18 131 20 190 4z m-987 -89 c69 -18 150 -61 186 -99 l24 -26 -109
-109 -110 -110 -233 0 -233 0 7 38 c9 54 60 151 102 195 45 46 137 101 157 93
8 -3 15 -12 15 -20 0 -17 37 -30 67 -24 10 1 26 20 36 41 10 20 21 37 24 37 3
0 33 -7 67 -16z m1024 -586 c320 -321 552 -561 552 -571 0 -22 -23 -47 -42
-47 -7 0 -270 257 -583 571 l-570 570 28 25 c21 18 33 22 45 15 9 -5 266 -259
570 -563z m-728 296 c13 -47 17 -155 5 -174 -3 -5 -8 -18 -10 -29 -21 -109
-145 -232 -271 -269 -52 -15 -161 -16 -203 -1 l-33 12 21 21 c11 11 31 33 43
48 118 138 409 438 424 438 6 0 17 -21 24 -46z m1057 -1042 c-34 -35 -87 -87
-117 -116 -30 -28 -82 -78 -115 -111 -74 -73 -140 -134 -224 -205 -35 -30 -76
-65 -89 -78 -14 -12 -39 -33 -55 -45 -16 -12 -36 -29 -45 -38 -10 -8 -37 -31
-62 -49 -25 -19 -49 -40 -55 -46 -5 -6 -26 -22 -45 -35 -19 -13 -42 -31 -51
-39 -30 -28 -59 -50 -67 -50 -4 0 -21 -14 -39 -30 -18 -17 -35 -30 -39 -30 -3
0 -21 -12 -39 -27 -18 -16 -43 -35 -56 -45 -13 -9 -61 -44 -107 -77 -45 -34
-86 -61 -91 -61 -5 0 -11 -4 -13 -9 -3 -8 -28 -26 -143 -101 -30 -19 -80 -53
-112 -74 -32 -22 -74 -49 -93 -61 -19 -12 -54 -34 -77 -48 -83 -53 -75 -58
-380 246 l-273 273 0 168 0 167 46 72 c101 156 474 671 531 732 10 11 39 47
65 80 25 33 61 77 80 98 32 35 36 37 64 26 47 -18 159 -27 237 -19 191 22 355
171 407 372 13 48 10 197 -5 233 -4 11 225 -212 508 -495 l516 -514 -62 -64z
m-1467 889 c0 -5 -12 -19 -26 -30 -15 -12 -23 -21 -19 -21 4 0 -8 -17 -28 -37
-19 -21 -70 -78 -112 -128 -43 -49 -86 -97 -96 -107 -11 -9 -19 -18 -19 -20 0
-5 -31 -41 -125 -148 -27 -31 -70 -80 -95 -110 -25 -29 -49 -57 -55 -64 -5 -6
-25 -29 -44 -51 -60 -71 -145 -168 -166 -190 -11 -12 -40 -46 -64 -76 -25 -29
-63 -73 -85 -96 l-40 -43 -76 0 -77 0 -54 62 c-30 34 -76 87 -104 118 -27 31
-84 96 -125 145 -41 49 -95 112 -120 140 -26 27 -59 66 -74 85 -35 43 -126
147 -282 323 -19 21 -34 40 -34 42 0 2 -10 15 -22 27 -41 43 -143 160 -151
174 -7 12 152 14 1043 14 638 0 1050 -4 1050 -9z"/>
<path d="M1505 2836 c-23 -8 -64 -25 -93 -40 -45 -23 -63 -26 -149 -26 -100 0
-218 19 -280 45 -59 25 -71 14 -30 -27 12 -13 39 -44 60 -68 78 -93 122 -144
138 -159 9 -9 40 -45 70 -81 29 -36 60 -72 69 -80 8 -8 36 -40 60 -70 25 -30
52 -60 60 -67 20 -16 128 -17 143 0 7 6 27 30 46 52 64 76 146 169 169 193 12
12 22 26 22 29 0 3 8 13 18 22 9 9 30 32 46 51 32 39 132 154 159 182 26 28
21 35 -30 42 -104 14 -437 15 -478 2z"/>
<path d="M3907 1882 c-9 -10 -24 -38 -32 -62 -62 -177 -212 -326 -385 -385 -3
-1 -17 -7 -31 -13 -27 -11 -95 -24 -136 -26 -27 -1 -73 -44 -73 -67 0 -10 12
-27 27 -39 23 -18 36 -20 85 -16 33 3 62 8 67 10 4 3 23 8 42 11 19 3 57 17
86 31 28 13 55 24 58 24 3 0 32 17 63 39 139 94 229 201 294 352 44 103 45
112 18 139 -25 25 -62 26 -83 2z"/>
<path d="M3996 1495 c-49 -78 -173 -201 -213 -211 -13 -4 -23 -9 -23 -14 0 -4
-19 -15 -42 -25 -130 -55 -146 -64 -153 -84 -8 -26 16 -67 44 -76 27 -8 134
31 211 77 138 84 195 140 284 280 20 31 36 60 36 63 0 4 -9 20 -21 36 -14 20
-29 29 -49 29 -24 0 -34 -10 -74 -75z"/>
</g>
</svg>
