<?xml version="1.0" encoding="UTF-8" standalone="no"?>
<svg
   xmlns:dc="http://purl.org/dc/elements/1.1/"
   xmlns:cc="http://creativecommons.org/ns#"
   xmlns:rdf="http://www.w3.org/1999/02/22-rdf-syntax-ns#"
   xmlns:svg="http://www.w3.org/2000/svg"
   xmlns="http://www.w3.org/2000/svg"
   xmlns:sodipodi="http://sodipodi.sourceforge.net/DTD/sodipodi-0.dtd"
   xmlns:inkscape="http://www.inkscape.org/namespaces/inkscape"
   version="1.0"
   width="1309pt"
   height="410pt"
   viewBox="0 0 1309 410"
   preserveAspectRatio="xMidYMid meet"
   id="svg40"
   sodipodi:docname="iconpage.svg"
   inkscape:version="0.92.4 (5da689c313, 2019-01-14)">
  <defs
     id="defs44" />
  <sodipodi:namedview
     pagecolor="#ffffff"
     bordercolor="#666666"
     borderopacity="1"
     objecttolerance="10"
     gridtolerance="10"
     guidetolerance="10"
     inkscape:pageopacity="0"
     inkscape:pageshadow="2"
     inkscape:window-width="1600"
     inkscape:window-height="847"
     id="namedview42"
     showgrid="false"
     inkscape:zoom="0.15592972"
     inkscape:cx="910.66667"
     inkscape:cy="512"
     inkscape:window-x="-8"
     inkscape:window-y="-8"
     inkscape:window-maximized="1"
     inkscape:current-layer="svg40"
     borderlayer="false" />
  <metadata
     id="metadata2">
Created by potrace 1.15, written by Peter Selinger 2001-2017
<rdf:RDF>
  <cc:Work
     rdf:about="">
    <dc:format>image/svg+xml</dc:format>
    <dc:type
       rdf:resource="http://purl.org/dc/dcmitype/StillImage" />
    <dc:title></dc:title>
  </cc:Work>
</rdf:RDF>
</metadata>
  <g
     transform="matrix(0.1,0,0,-0.1,-38.478873,583.15493)"
     id="g38"
     style="fill:#000000;stroke:none">
    <path
       d="m 2770,5694 c -182,-63 -303,-153 -405,-302 -48,-71 -49,-107 -5,-129 33,-16 52,-4 96,62 20,31 55,75 78,98 48,49 163,127 188,127 9,0 19,4 22,9 3,4 26,14 50,21 28,8 52,22 62,37 15,24 15,27 -3,52 -19,25 -52,35 -83,25 z"
       id="path4"
       inkscape:connector-curvature="0" />
    <path
       d="m 3016,5513 c -2,-2 -12,-5 -22,-7 -92,-18 -229,-73 -268,-108 -11,-10 -23,-18 -27,-18 -5,0 -31,-21 -60,-47 -55,-51 -126,-145 -154,-205 -15,-30 -26,-38 -62,-48 -122,-30 -253,-142 -294,-251 -13,-35 -24,-66 -25,-69 0,-3 -4,-22 -8,-42 l -8,-38 h -822 c -626,0 -825,-3 -834,-12 -16,-16 -15,-53 1,-70 6,-7 25,-29 41,-48 31,-38 82,-98 216,-250 83,-95 209,-240 250,-290 11,-14 33,-39 48,-56 15,-16 50,-56 77,-88 28,-32 70,-82 95,-110 25,-29 62,-72 83,-97 50,-59 53,-62 125,-143 l 62,-71 v -622 -623 h -29 c -51,0 -151,-37 -151,-56 0,-9 -11,-14 -27,-14 -79,0 -193,-55 -193,-94 0,-24 51,-54 136,-78 74,-21 97,-23 374,-23 277,0 300,2 374,23 130,37 167,79 108,120 -32,23 -123,52 -163,52 -16,0 -32,6 -36,14 -12,19 -40,32 -105,46 l -58,13 v 294 c 0,161 3,293 6,293 3,0 101,-95 218,-210 116,-116 225,-219 242,-229 43,-26 131,-22 173,9 17,12 31,19 31,15 0,-3 9,2 19,12 11,10 37,27 58,38 21,11 40,22 43,26 3,3 32,23 65,45 94,62 253,173 332,231 40,29 76,53 82,53 5,0 11,3 13,8 6,13 95,82 107,82 6,0 11,3 11,8 0,4 51,45 113,92 61,47 117,90 122,96 6,6 37,33 70,60 158,129 376,327 528,478 106,106 173,166 182,163 20,-8 76,32 98,71 14,24 20,55 21,117 2,82 4,86 53,167 28,46 56,101 62,123 15,53 14,136 -3,213 -22,108 -20,115 100,271 141,183 144,188 144,238 0,164 -225,418 -413,466 -65,17 -107,8 -157,-32 -21,-17 -41,-31 -44,-31 -3,0 -16,-10 -29,-22 -13,-13 -65,-54 -116,-93 -99,-76 -131,-85 -211,-59 -46,15 -205,16 -239,1 -14,-6 -60,-32 -101,-57 -93,-55 -90,-55 -170,-56 -36,0 -73,-1 -82,-2 -25,-3 -84,-57 -98,-91 l -12,-30 -56,44 c -38,29 -85,53 -139,71 l -82,27 17,29 c 44,76 201,208 247,208 8,0 15,4 15,9 0,10 110,40 168,45 59,6 92,29 92,66 0,37 -31,59 -83,57 -21,0 -39,-2 -41,-4 z m 1115,-198 c 64,-13 225,-157 274,-246 48,-90 46,-100 -56,-229 -50,-63 -94,-122 -99,-130 -7,-12 -56,32 -225,201 l -216,215 61,47 c 33,26 63,47 66,47 4,0 14,8 23,18 38,41 115,92 132,87 10,-3 28,-8 40,-10 z m -578,-235 c 17,-5 58,-10 91,-10 h 62 l 234,-235 235,-234 7,-68 c 3,-38 9,-84 13,-103 21,-104 7,-166 -67,-288 l -32,-53 -448,448 -447,447 32,14 c 17,7 34,17 37,22 3,5 35,24 70,42 55,29 74,33 124,31 33,-1 73,-7 89,-13 z m -931,-81 c 58,-12 128,-48 171,-87 l 27,-26 -102,-103 -103,-103 h -217 c -120,0 -218,4 -218,8 0,5 7,31 17,58 32,97 92,171 176,217 58,33 60,33 72,5 7,-15 20,-24 41,-26 26,-3 33,2 49,33 22,40 17,39 87,24 z m 946,-541 c 372,-372 522,-528 520,-542 -2,-10 -11,-24 -21,-30 -15,-9 -90,62 -547,519 -292,291 -530,534 -530,538 0,14 24,36 40,37 8,0 250,-235 538,-522 z m -670,286 c 8,-35 8,-171 0,-200 -41,-141 -172,-250 -314,-262 -65,-5 -154,4 -154,16 0,4 17,26 38,49 20,23 60,68 87,99 87,101 324,339 330,332 3,-3 9,-18 13,-34 z m 1042,-924 c -1,-9 -152,-162 -267,-270 -121,-114 -149,-139 -238,-215 -32,-27 -72,-63 -89,-78 -17,-16 -48,-40 -68,-54 -21,-14 -38,-30 -38,-34 0,-5 -4,-9 -10,-9 -5,0 -18,-8 -28,-17 -23,-22 -44,-39 -97,-78 -22,-17 -45,-34 -51,-40 -32,-28 -55,-45 -60,-45 -3,0 -11,-6 -19,-12 -22,-22 -48,-42 -100,-78 -27,-19 -62,-44 -76,-55 -14,-11 -36,-27 -49,-35 -12,-8 -28,-19 -34,-25 -12,-11 -110,-79 -171,-119 -22,-14 -67,-44 -100,-66 -131,-89 -220,-140 -245,-140 -20,0 -80,55 -283,258 l -257,258 v 155 154 l 68,100 c 184,271 355,505 511,699 53,65 101,125 107,133 10,12 20,12 75,-2 307,-80 591,145 581,460 -1,28 -7,66 -12,85 -8,29 77,-52 470,-445 264,-264 480,-482 480,-485 z m -1420,765 c 0,-2 -10,-15 -22,-27 -13,-13 -44,-48 -70,-78 -25,-30 -56,-66 -68,-80 -12,-14 -43,-49 -68,-79 -26,-30 -57,-64 -69,-75 -13,-11 -23,-23 -23,-27 0,-4 -19,-27 -42,-52 -56,-58 -139,-152 -178,-202 -17,-22 -36,-45 -43,-50 -11,-9 -80,-89 -138,-160 -13,-16 -36,-41 -50,-56 -14,-15 -48,-54 -75,-88 l -49,-61 h -86 c -82,0 -88,1 -103,26 -10,14 -38,49 -64,77 -26,29 -64,73 -85,97 -20,25 -47,57 -60,71 -12,14 -47,54 -77,89 -30,35 -77,89 -105,120 -27,31 -72,83 -100,115 -27,33 -70,82 -95,110 -25,29 -79,91 -120,140 -41,48 -84,97 -95,109 -11,11 -33,36 -49,54 l -30,32 h 982 c 540,0 982,-2 982,-5 z"
       id="path6"
       inkscape:connector-curvature="0" />
    <path
       d="m 1580,4157 c -30,-8 -75,-24 -100,-38 -41,-22 -56,-24 -160,-23 -106,2 -199,18 -272,49 -30,12 -21,-17 20,-61 20,-22 62,-69 92,-104 30,-34 75,-86 100,-115 25,-28 70,-80 100,-116 130,-150 128,-149 179,-149 52,1 65,9 131,90 46,56 100,117 135,155 11,11 40,46 64,76 24,29 51,61 60,69 35,34 121,139 121,148 0,24 -384,39 -470,19 z"
       id="path8"
       inkscape:connector-curvature="0" />
    <path
       d="m 10890,4763 c -19,-2 -93,-15 -165,-28 -190,-36 -356,-49 -535,-41 -85,3 -167,9 -182,12 l -28,6 v -58 c 0,-33 4,-65 8,-72 15,-22 66,-30 152,-21 47,4 148,8 225,9 77,1 161,5 188,9 26,4 47,7 47,7 0,-1 9,-46 19,-101 40,-203 44,-294 46,-860 1,-552 2,-568 36,-657 14,-34 57,-51 90,-34 46,22 59,68 59,211 0,183 -17,487 -40,710 -21,206 -44,542 -45,642 0,50 4,67 21,83 30,31 87,40 169,30 89,-12 216,-12 233,-1 11,6 4,24 -33,79 -36,55 -53,71 -77,76 -31,6 -125,6 -188,-1 z"
       id="path10"
       inkscape:connector-curvature="0" />
    <path
       d="m 5130,4734 c -116,-20 -157,-30 -240,-56 -185,-59 -361,-171 -465,-296 -63,-76 -72,-119 -33,-146 37,-26 66,-19 117,29 26,25 51,45 54,45 10,0 54,-149 68,-230 10,-55 13,-205 14,-567 0,-270 3,-494 7,-498 12,-12 96,5 120,25 23,18 23,20 23,257 0,217 2,242 20,282 l 20,43 60,-44 c 142,-105 278,-282 425,-553 81,-148 120,-200 163,-210 32,-9 73,14 89,50 9,20 7,30 -14,57 -13,18 -32,53 -42,78 -35,89 -75,149 -261,390 -66,86 -143,189 -170,229 l -50,73 25,17 c 206,136 373,352 426,553 20,77 15,229 -11,299 -23,65 -75,122 -134,147 -48,21 -161,35 -211,26 z m 121,-120 c 35,-18 86,-76 104,-121 25,-60 29,-141 11,-213 -56,-223 -254,-450 -439,-505 -58,-17 -100,-5 -135,40 -34,43 -41,86 -46,295 -3,107 -10,213 -15,235 -17,66 -14,85 24,121 70,66 206,131 331,158 72,15 121,12 165,-10 z"
       id="path12"
       inkscape:connector-curvature="0" />
    <path
       d="m 5783,4711 c -74,-34 -91,-96 -68,-256 34,-241 35,-273 20,-480 -8,-110 -15,-255 -15,-322 0,-110 -3,-129 -27,-187 l -26,-65 23,-88 c 16,-58 24,-120 25,-183 1,-52 7,-107 13,-122 17,-42 67,-68 132,-68 30,0 82,-7 115,-15 87,-21 167,-18 276,9 134,34 202,69 280,146 79,77 136,186 171,325 20,80 23,113 23,305 -1,161 -5,238 -18,307 -56,295 -173,480 -388,611 -143,87 -429,131 -536,83 z m 311,-117 c 260,-67 448,-319 501,-674 30,-193 11,-408 -46,-547 -57,-136 -162,-255 -269,-306 -152,-72 -329,-11 -380,130 -10,29 -15,165 -20,583 -5,371 -11,574 -20,635 -15,101 -10,136 25,171 20,20 34,24 86,24 33,0 89,-7 123,-16 z"
       id="path14"
       inkscape:connector-curvature="0" />
    <path
       d="m 7654,4486 c -16,-12 -20,-29 -23,-100 l -3,-86 33,6 c 54,10 103,37 119,67 13,24 13,30 0,54 -16,28 -74,73 -95,73 -6,0 -20,-6 -31,-14 z"
       id="path16"
       inkscape:connector-curvature="0" />
    <path
       d="m 11064,4486 c -16,-12 -20,-29 -23,-100 l -3,-86 33,6 c 54,10 103,37 119,67 13,24 13,30 0,54 -16,28 -74,73 -95,73 -6,0 -20,-6 -31,-14 z"
       id="path18"
       inkscape:connector-curvature="0" />
    <path
       d="m 9114,4471 c -17,-11 -36,-34 -43,-52 -15,-44 -14,-192 4,-465 17,-247 16,-268 -22,-509 -34,-213 -30,-361 10,-448 l 26,-58 45,30 c 24,17 46,38 50,46 3,9 6,59 6,110 0,85 2,97 24,122 23,27 28,28 113,28 76,0 96,-4 144,-28 76,-37 143,-110 218,-239 78,-134 82,-137 115,-98 56,67 55,143 -5,233 -51,77 -124,134 -254,197 -130,63 -170,93 -181,135 -10,38 9,72 146,265 182,256 229,357 216,463 -8,68 -18,76 -59,44 -47,-36 -88,-104 -137,-227 -62,-156 -102,-226 -186,-326 -41,-49 -83,-101 -92,-116 -9,-16 -19,-28 -23,-28 -15,0 -21,84 -29,445 -8,371 -18,483 -45,492 -6,1 -24,-6 -41,-16 z"
       id="path20"
       inkscape:connector-curvature="0" />
    <path
       d="m 11755,4067 c -27,-7 -67,-21 -87,-31 -39,-19 -108,-80 -108,-97 0,-6 19,-7 48,-4 26,3 115,10 199,15 233,15 345,-6 452,-84 58,-43 133,-138 170,-216 23,-49 26,-68 26,-166 0,-110 0,-111 -43,-198 -91,-183 -318,-354 -529,-397 -51,-10 -65,-11 -75,-1 -19,19 -15,225 7,411 27,235 9,460 -37,469 -9,2 -31,-10 -50,-27 l -33,-29 -5,-329 -5,-328 -32,-69 c -35,-73 -41,-122 -22,-189 33,-121 31,-159 -33,-614 -34,-238 -60,-435 -57,-437 3,-3 30,-8 60,-12 49,-6 58,-4 84,19 l 29,25 13,266 c 14,313 26,446 53,575 24,118 38,134 148,167 108,33 278,119 364,184 98,74 209,197 245,271 106,216 42,477 -164,669 -115,108 -250,156 -468,165 -64,3 -118,0 -150,-8 z"
       id="path22"
       inkscape:connector-curvature="0" />
    <path
       d="m 6841,3914 c -43,-36 -48,-77 -22,-198 25,-121 26,-153 5,-378 -18,-192 -13,-348 12,-385 22,-35 73,-31 109,7 29,30 30,34 41,203 20,275 58,393 164,498 71,72 101,87 208,103 48,8 95,17 104,21 20,8 48,64 48,95 0,22 -2,23 -76,17 -84,-8 -183,-31 -227,-54 -16,-8 -66,-49 -111,-92 -124,-117 -111,-116 -136,-10 -27,118 -58,199 -75,199 -7,0 -27,-12 -44,-26 z"
       id="path24"
       inkscape:connector-curvature="0" />
    <path
       d="m 7671,3894 c -48,-40 -54,-82 -47,-304 11,-359 28,-613 43,-642 39,-79 195,-88 344,-22 78,35 96,68 79,147 -6,31 -15,57 -20,57 -5,0 -44,-22 -86,-50 -110,-72 -169,-78 -199,-20 -31,59 -38,164 -25,351 7,97 10,228 7,290 -5,118 -30,219 -53,219 -7,0 -26,-12 -43,-26 z"
       id="path26"
       inkscape:connector-curvature="0" />
    <path
       d="m 11081,3894 c -48,-40 -54,-82 -47,-304 11,-359 28,-613 43,-642 39,-79 195,-88 344,-22 78,35 96,68 79,147 -6,31 -15,57 -20,57 -5,0 -44,-22 -86,-50 -110,-72 -169,-78 -199,-20 -31,59 -38,164 -25,351 7,97 10,228 7,290 -5,118 -30,219 -53,219 -7,0 -26,-12 -43,-26 z"
       id="path28"
       inkscape:connector-curvature="0" />
    <path
       d="m 8645,3846 c -49,-21 -128,-95 -211,-194 -42,-51 -80,-90 -84,-85 -12,13 -39,104 -46,154 -9,68 -15,74 -53,54 -52,-26 -61,-62 -61,-247 0,-131 -5,-189 -25,-297 -27,-146 -30,-202 -12,-271 15,-56 34,-61 80,-20 44,39 62,83 86,219 23,127 53,205 118,310 47,74 161,204 214,242 l 27,19 27,-57 c 78,-168 86,-218 75,-418 -8,-138 0,-258 20,-296 11,-20 11,-20 43,0 99,61 120,261 57,531 -70,295 -108,370 -186,370 -22,-1 -52,-7 -69,-14 z"
       id="path30"
       inkscape:connector-curvature="0" />
    <path
       d="m 12962,3839 c -70,-12 -161,-59 -200,-104 -26,-29 -32,-44 -32,-81 0,-25 7,-58 15,-73 25,-50 114,-118 238,-181 132,-69 183,-108 204,-158 13,-30 12,-38 -6,-75 -38,-78 -135,-122 -253,-115 -57,3 -73,8 -105,34 -21,17 -44,49 -52,70 -8,21 -16,41 -17,42 -7,11 -74,-22 -99,-48 -110,-115 106,-247 373,-227 206,15 324,108 326,255 1,113 -60,185 -275,326 -176,115 -200,151 -127,196 46,28 71,25 160,-17 43,-20 81,-33 85,-30 12,13 8,104 -6,130 -26,50 -126,74 -229,56 z"
       id="path32"
       inkscape:connector-curvature="0" />
    <path
       d="m 3803,3268 c -5,-7 -31,-58 -57,-112 -46,-96 -114,-178 -196,-239 -53,-40 -190,-94 -255,-102 -86,-9 -129,-60 -85,-100 20,-18 56,-21 125,-10 36,5 70,13 70,15 0,1 8,3 17,5 34,6 134,58 193,100 113,80 191,180 255,327 32,74 32,78 16,102 -18,28 -66,36 -83,14 z"
       id="path34"
       inkscape:connector-curvature="0" />
    <path
       d="m 3891,2919 c -68,-119 -201,-232 -312,-265 -53,-16 -99,-52 -99,-77 0,-8 8,-25 19,-38 18,-22 20,-22 75,-10 82,18 224,102 300,177 33,32 94,116 129,177 l 21,37 -24,25 c -14,15 -35,25 -52,25 -23,0 -33,-9 -57,-51 z"
       id="path36"
       inkscape:connector-curvature="0" />
  </g>
</svg>
